<?xml version="1.0" standalone="no"?>
<!DOCTYPE svg PUBLIC "-//W3C//DTD SVG 20010904//EN"
 "http://www.w3.org/TR/2001/REC-SVG-20010904/DTD/svg10.dtd">
<svg version="1.0" xmlns="http://www.w3.org/2000/svg"
 width="240.000000pt" height="240.000000pt" viewBox="0 0 240.000000 240.000000"
 preserveAspectRatio="xMidYMid meet">

<g transform="translate(0.000000,240.000000) scale(0.100000,-0.100000)"
fill="#000000" stroke="none">
<path d="M610 1240 c-193 -19 -332 -115 -391 -270 -29 -77 -122 -863 -111
-939 l4 -31 89 0 89 0 0 33 c0 17 -9 129 -20 247 -26 286 -26 312 4 347 l24
28 899 3 c663 2 905 -1 926 -9 56 -23 60 -48 42 -257 -8 -103 -19 -233 -23
-290 l-8 -102 93 0 92 0 6 33 c4 18 -7 152 -24 297 -16 146 -35 317 -41 380
-24 244 -85 378 -210 456 -76 48 -133 62 -288 73 -169 12 -209 2 -274 -67 -25
-27 -51 -59 -58 -73 -26 -50 -213 -290 -220 -282 -4 4 -56 73 -115 153 -118
159 -184 233 -229 257 -35 18 -144 24 -256 13z"/>
<path d="M1170 1201 c-31 -9 -50 -44 -50 -97 0 -39 24 -86 78 -153 l19 -24 52
68 c28 38 54 79 57 92 10 37 -5 91 -29 108 -22 15 -83 18 -127 6z"/>
</g>
</svg>
